<svg width="14" height="11" viewBox="0 0 14 11" fill="none" xmlns="http://www.w3.org/2000/svg">
<path d="M13.5203 1.35525L5.05856 9.81695C4.98486 9.8909 4.89729 9.94958 4.80086 9.98962C4.70444 10.0297 4.60106 10.0503 4.49665 10.0503C4.39224 10.0503 4.28886 10.0297 4.19244 9.98962C4.09601 9.94958 4.00844 9.8909 3.93474 9.81695L0.232751 6.11495C0.15896 6.04116 0.100425 5.95356 0.0604899 5.85715C0.0205545 5.76073 1.09957e-09 5.6574 0 5.55304C-1.09957e-09 5.44869 0.0205545 5.34535 0.0604899 5.24894C0.100425 5.15253 0.15896 5.06492 0.232751 4.99113C0.306542 4.91734 0.394144 4.85881 0.490557 4.81887C0.586969 4.77894 0.690304 4.75838 0.79466 4.75838C0.899016 4.75838 1.00235 4.77894 1.09876 4.81887C1.19518 4.85881 1.28278 4.91734 1.35657 4.99113L4.49731 8.13188L12.3978 0.23275C12.5468 0.0837227 12.7489 0 12.9597 0C13.1704 0 13.3726 0.0837227 13.5216 0.23275C13.6706 0.381778 13.7543 0.583903 13.7543 0.79466C13.7543 1.00542 13.6706 1.20754 13.5216 1.35657L13.5203 1.35525Z" fill="white"/>
</svg>
