<svg width="42" height="40" viewBox="0 0 42 40" fill="none" xmlns="http://www.w3.org/2000/svg">
<path d="M38.8662 19.5744C38.8662 29.0288 30.7496 36.7019 20.7286 36.7019C10.7076 36.7019 2.59106 29.0288 2.59106 19.5744C2.59106 10.1114 10.7076 2.44678 20.7286 2.44678C30.7496 2.44678 38.8662 10.1114 38.8662 19.5744Z" fill="#283544"/>
<path d="M29.2302 15.2403C29.1312 15.2949 26.7751 16.4455 26.7751 18.9967C26.8861 21.9063 29.7484 22.9266 29.7975 22.9266C29.7484 22.9812 29.3654 24.3166 28.2308 25.7165C27.3303 26.9224 26.3309 28.1382 24.8133 28.1382C23.3696 28.1382 22.8514 27.3345 21.1857 27.3345C19.3969 27.3345 18.8908 28.1382 17.5212 28.1382C16.0036 28.1382 14.9301 26.8572 13.9806 25.6627C12.747 24.0992 11.6985 21.6457 11.6615 19.2899C11.6365 18.0415 11.9085 16.8144 12.5989 15.7721C13.5734 14.317 15.3131 13.3292 17.213 13.2966C18.6687 13.2534 19.9642 14.1761 20.8526 14.1761C21.7039 14.1761 23.2956 13.2966 25.0965 13.2966C25.8738 13.2973 27.9467 13.5034 29.2302 15.2403ZM20.7295 13.0474C20.4704 11.9074 21.1857 10.7674 21.852 10.0401C22.7034 9.1607 24.048 8.56378 25.2075 8.56378C25.2816 9.7038 24.8124 10.8219 23.974 11.6362C23.2216 12.5156 21.926 13.1777 20.7295 13.0474Z" fill="white"/>
</svg>
