<svg width="12" height="7" viewBox="0 0 12 7" fill="none" xmlns="http://www.w3.org/2000/svg">
<path d="M0.221355 5.22061L5.22135 0.220609C5.29103 0.150689 5.37383 0.0952116 5.46499 0.0573578C5.55615 0.0195036 5.65389 1.72007e-05 5.7526 1.71921e-05C5.85132 1.71835e-05 5.94906 0.0195036 6.04022 0.0573578C6.13138 0.0952115 6.21418 0.150689 6.28385 0.220609L11.2839 5.22061C11.4248 5.3615 11.5039 5.5526 11.5039 5.75186C11.5039 5.95112 11.4248 6.14221 11.2839 6.28311C11.143 6.424 10.9519 6.50316 10.7526 6.50316C10.5533 6.50316 10.3623 6.424 10.2214 6.28311L5.75198 1.81373L1.28261 6.28373C1.14171 6.42463 0.950614 6.50379 0.751356 6.50379C0.552098 6.50379 0.361002 6.42463 0.220106 6.28373C0.0792102 6.14284 5.33575e-05 5.95174 5.33401e-05 5.75248C5.33227e-05 5.55323 0.0792102 5.36213 0.220106 5.22123L0.221355 5.22061Z" fill="black"/>
</svg>
